<svg xmlns="http://www.w3.org/2000/svg" viewBox="0 0 582 81.82"><title>laliga-santander-logo</title><path d="M251.12,504.37a16,16,0,0,1,5.54-3.89l0,.14-.84.85a11.71,11.71,0,0,1,4.35.58c.19,1.38.29,2.78.5,4.17a35.33,35.33,0,0,0,.68-4.23,13.56,13.56,0,0,1,4.15-.53l-.48-1a15.29,15.29,0,0,1,5.51,4.18l-1-.3a17.53,17.53,0,0,1,.9,4.07,26.28,26.28,0,0,0-3.71,2c1.31-.2,2.61-.48,3.92-.75a10.13,10.13,0,0,1,1.82,3.82l.93-.77a21.65,21.65,0,0,1-2.17,6.42l-.24-1a10.88,10.88,0,0,1-3.73,2.1,31.33,31.33,0,0,0-2.9-3.11c.5,1.37,1.49,2.54,1.88,3.95-.75,1.28-2.41,1.84-2.83,3.32a12.13,12.13,0,0,1-5,.07c-.73-1.43-2.23-2.21-3.18-3.46.73-1.31,1.46-2.62,2.09-4h7c.71-2.21,1.45-4.4,2.15-6.6l-5.63-4.11c-1.86,1.35-3.73,2.7-5.57,4.08-1.34-.66-2.7-1.27-4.05-1.89a12.58,12.58,0,0,1,.83-3.93l-.86-.2Z" transform="translate(-221 -471.09)" style="fill:#fff"/><path d="M249.07,513.6a11.61,11.61,0,0,1,1.76-3.95c1.43.26,2.86.56,4.3.76.72,2.17,1.38,4.35,2.13,6.51-1,1.09-2,2.19-3,3.3a14.5,14.5,0,0,1-3.84-2.2l.06,1.09a13.37,13.37,0,0,1-2.13-6.53Z" transform="translate(-221 -471.09)" style="fill:#fff"/><path d="M250.16,473a20.62,20.62,0,0,1,7.74-1.86c1,5.66,2.28,11.26,3,16.95a19.91,19.91,0,0,0-13.67,9.51,12.26,12.26,0,0,1-3.18-1.57c-4-2.38-8-4.57-11.94-7.05A36,36,0,0,1,250.16,473Z" transform="translate(-221 -471.09)" style="fill:#8e2f89"/><path d="M261.39,475.37a36,36,0,0,1,30.11,8.88c-3.77,4.41-7.53,8.83-11.41,13.14a19.79,19.79,0,0,0-16.23-4.69C263,486.92,262,481.17,261.39,475.37Z" transform="translate(-221 -471.09)" style="fill:#e61e29"/><path d="M519,487.85a12.46,12.46,0,0,1,.49-13,25.62,25.62,0,0,0,1.78,4.1c2.92,5,5.81,10.07,8.73,15.11a14.42,14.42,0,0,1,1.78,5.78c5.66,1.61,11.67,4.17,14.91,9.36a9.59,9.59,0,0,1-1.35,11.41c-4.4,4.88-11,7.1-17.25,8.28-8.85,1.44-18.19.91-26.55-2.49-3.86-1.62-7.61-4-9.86-7.62a9.32,9.32,0,0,1,.53-10.42c3.42-4.66,9-7.06,14.44-8.53a14.82,14.82,0,0,0,1.7,6.65q4.43,7.72,8.9,15.43a20,20,0,0,1,1.63,3.85,12.47,12.47,0,0,0,.21-12.81q-3.4-5.87-6.81-11.76a13.31,13.31,0,0,1-.08-14c1.63,4.71,4.63,8.76,7,13.12s5.22,8.28,6.92,12.87a12.16,12.16,0,0,0,.32-12.45C524,496.42,521.43,492.16,519,487.85Z" transform="translate(-221 -471.09)" style="fill:#e20b1a"/><path d="M566.57,490.1a28.71,28.71,0,0,1,13.67.31c.59.29,1.57.14,1.86.85a25,25,0,0,1-1,5.27c-4.31-1.24-9.19-2.49-13.5-.67-3,1.3-2.94,5.75-.4,7.49,4,3,9.35,3.72,13.19,7.07,3.92,3.07,4.57,9.19,1.91,13.28-1.83,2.71-5,4.14-8.18,4.66a29.86,29.86,0,0,1-15.41-1.66,32.73,32.73,0,0,1,1-5.63c4.55,1.7,9.62,2.85,14.42,1.5a4.34,4.34,0,0,0,3.4-4.46c0-2.37-2.05-4-4-5-4-2.21-8.83-3.19-12-6.69-2.55-2.78-3-7-1.85-10.49a9.42,9.42,0,0,1,6.94-5.88Z" transform="translate(-221 -471.09)" style="fill:#e20b1a"/><path d="M649.16,490.7a24.53,24.53,0,0,1,6.09-.86c0,3.41,0,6.81,0,10.21,3.12,0,6.24,0,9.36,0a36.87,36.87,0,0,1-.56,5.22c-2.94,0-5.88,0-8.81,0,0,4.47,0,8.94,0,13.41,0,1.6.53,3.48,2.12,4.14,2.29,1,4.83.26,7.14-.29-.23,1.7-.46,3.41-.68,5.12a14.48,14.48,0,0,1-10.59-.23c-2.72-1.29-4-4.4-4-7.27,0-9.81,0-19.61,0-29.41Z" transform="translate(-221 -471.09)" style="fill:#e20b1a"/><path d="M746.36,490.86c1.65-1.1,4-.81,5.9-1q-.06,19,0,37.93c-1.84.09-3.69.12-5.53.08-.13-1.06-.24-2.11-.35-3.17-2.8,4.48-9.19,4.72-13.48,2.42-3.94-2.12-5.78-6.68-6.07-11-.42-5,.54-10.67,4.67-13.93s9.81-3.4,14.82-2.71c0-2.88-.12-5.77.06-8.64m-9.84,14.86c-3,2-3.75,6-3.58,9.37.16,2.9,1.11,6.27,3.95,7.64,3,1.51,6.69.65,9.4-1.19,0-5.55,0-11.09,0-16.63C743.08,504.32,739.41,503.79,736.52,505.71Z" transform="translate(-221 -471.09)" style="fill:#e20b1a"/><path d="M591.58,502.74c3.15-3,7.69-3.69,11.86-3.58a31.73,31.73,0,0,1,9.45,1.5c0,9.06,0,18.11,0,27.17-1.87,0-3.73,0-5.6,0q-.24-1.45-.38-2.92c-3.21,4.52-10.05,4.49-14.31,1.57-3.64-2.55-5-7.15-5.19-11.4s.74-9.27,4.15-12.35m5.3,3.29c-2.87,2.17-3.48,6.13-3.21,9.5.2,2.69,1.15,5.72,3.69,7.07,3,1.63,6.76.87,9.48-1,0-5.64,0-11.29,0-16.93C603.51,504.26,599.74,503.91,596.88,506Z" transform="translate(-221 -471.09)" style="fill:#e20b1a"/><path d="M619.24,500.66c6.07-1.32,12.63-2.49,18.64-.28,3.39,1.15,5.39,4.67,5.39,8.14.2,6.44,0,12.88.09,19.32h-6.18c0-6,0-11.91,0-17.85.06-1.88-.68-4-2.54-4.82-3-1.23-6.25-.77-9.33-.39,0,7.68,0,15.37,0,23.06-2,0-4,0-6.07,0,0-9.06,0-18.11,0-27.17Z" transform="translate(-221 -471.09)" style="fill:#e20b1a"/><path d="M667,508.41a12.17,12.17,0,0,1,9.25-8.69,31.18,31.18,0,0,1,15.47.93c.06,9.06,0,18.11,0,27.17-1.87,0-3.73,0-5.6,0a26.56,26.56,0,0,1-.39-2.88c-4.14,5.55-13.57,4.28-17.08-1.34-2.77-4.49-3-10.2-1.68-15.21m9.7-3a8,8,0,0,0-4,6.1,13.3,13.3,0,0,0,1.42,9.19c2.59,3.75,8.21,3.36,11.57.89,0-5.64,0-11.29,0-16.93-3-.33-6.2-.7-9,.75Z" transform="translate(-221 -471.09)" style="fill:#e20b1a"/><path d="M698,500.66c5.38-1.21,11-2.15,16.49-1,2.43.55,4.91,1.74,6.21,4,1.6,2.67,1.38,5.9,1.41,8.89q0,7.64,0,15.27H716.1c0-5.6,0-11.21,0-16.81,0-2.05-.24-4.64-2.31-5.7-3-1.46-6.46-.93-9.63-.57-.07,7.69,0,15.38,0,23.07-2,0-4,0-6.07,0C698,518.77,698,509.71,698,500.66Z" transform="translate(-221 -471.09)" style="fill:#e20b1a"/><path d="M759.14,504.64a11.47,11.47,0,0,1,9-5.37c4.21-.53,9.05.43,11.78,4s2.8,8.6,2.24,13c-6.37.05-12.74-.05-19.1.06.59,2.6,1.93,5.36,4.63,6.29,4.55,1.6,9.53.35,13.87-1.31q-.42,2.78-.93,5.55a22.73,22.73,0,0,1-15.31.72,11.85,11.85,0,0,1-7.79-8.87c-1-4.64-.83-9.82,1.6-14m7.12.52c-2.15,1.21-2.84,3.75-3.26,6,4.47,0,8.94,0,13.41,0a9.33,9.33,0,0,0-1.33-4.49c-1.95-2.72-6-3-8.83-1.52Z" transform="translate(-221 -471.09)" style="fill:#e20b1a"/><path d="M787.49,500.61A43.29,43.29,0,0,1,803,499.35v1.41c-.12,1.28-.32,2.54-.51,3.81a41.81,41.81,0,0,0-9,.09c0,7.72,0,15.45,0,23.18q-3,0-6.07,0C787.48,518.75,787.42,509.68,787.49,500.61Z" transform="translate(-221 -471.09)" style="fill:#e20b1a"/><path d="M402.12,486.12a5.45,5.45,0,1,1,1.78,10.55,5.34,5.34,0,0,1-5.29-5.78A5.47,5.47,0,0,1,402.12,486.12Z" transform="translate(-221 -471.09)" style="fill:#030406"/><path d="M315.35,491.34c3.2,0,6.41,0,9.61,0,0,9.43,0,18.86,0,28.29h11.49c0,2.81,0,5.63,0,8.44-7,.06-14.07,0-21.11,0Q315.34,509.72,315.35,491.34Z" transform="translate(-221 -471.09)" style="fill:#030406"/><path d="M374.46,491.34h9.73v28.29c3.83,0,7.67,0,11.51,0,0,2.81,0,5.63,0,8.45H374.46Q374.45,509.72,374.46,491.34Z" transform="translate(-221 -471.09)" style="fill:#030406"/><path d="M413.27,506.45c1.65-4.5,5.88-8.14,10.77-8.35a11.86,11.86,0,0,1,9.55,3.56c0-1,0-2,0-3,2.9,0,5.8,0,8.71,0,0,8.51,0,17,0,25.54,0,4.09-1.38,8.4-4.7,11-5,3.85-12,4.2-17.74,1.88a11.69,11.69,0,0,1-7.22-8.94c3.34,0,6.68,0,10,0,1.94,3.2,6.65,3,9.32.89,1.48-1.25,1.24-3.32,1.33-5.05-2.64,2-5.81,3.52-9.19,3.25a12.06,12.06,0,0,1-9.15-5c-3.22-4.48-3.59-10.61-1.67-15.69m11.89-.39c-5.3,1.68-5.8,10.26-1,12.86a6.57,6.57,0,0,0,8.24-2.09,7.39,7.39,0,0,0-1-9.52A7,7,0,0,0,425.16,506.06Z" transform="translate(-221 -471.09)" style="fill:#030406"/><path d="M258.15,498.8a13.72,13.72,0,1,1-11,13.24,13.74,13.74,0,0,1,11-13.24m-7,5.57.86.2a12.58,12.58,0,0,0-.83,3.93c1.35.63,2.71,1.24,4.05,1.89,1.84-1.38,3.71-2.73,5.57-4.08l5.63,4.11c-.69,2.21-1.44,4.4-2.15,6.6h-7c-.63,1.36-1.36,2.67-2.09,4,1,1.25,2.46,2,3.18,3.46a12.13,12.13,0,0,0,5-.07c.42-1.49,2.09-2,2.83-3.32-.39-1.41-1.38-2.57-1.88-3.95a31.33,31.33,0,0,1,2.9,3.11,10.88,10.88,0,0,0,3.73-2.1l.24,1a21.65,21.65,0,0,0,2.17-6.42l-.93.77a10.13,10.13,0,0,0-1.82-3.82c-1.3.27-2.6.56-3.92.75a26.28,26.28,0,0,1,3.71-2,17.53,17.53,0,0,0-.9-4.07l1,.3a15.29,15.29,0,0,0-5.51-4.18l.48,1a13.56,13.56,0,0,0-4.15.53,35.33,35.33,0,0,1-.68,4.23c-.21-1.38-.31-2.78-.5-4.17a11.71,11.71,0,0,0-4.35-.58l.84-.85,0-.14a16,16,0,0,0-5.54,3.89m-2,9.24-.74-1a13.37,13.37,0,0,0,2.13,6.53L250.4,518a14.5,14.5,0,0,0,3.84,2.2c1-1.12,2-2.21,3-3.3-.75-2.16-1.41-4.34-2.13-6.51-1.44-.21-2.87-.51-4.3-.76A11.61,11.61,0,0,0,249.07,513.6Z" transform="translate(-221 -471.09)" style="fill:#030406"/><path d="M343,501.65a13.43,13.43,0,0,1,12.44-3.15,14,14,0,0,1,5.08,3c0-.95.05-1.89.07-2.84,2.94,0,5.88,0,8.82,0q0,14.72,0,29.42c-3,0-6,0-9,0,0-.88,0-1.77,0-2.66-5.36,5.1-15,4.44-19.43-1.54-4.72-6.56-4.09-16.73,2-22.25m8.55,5.17c-4.79,1.51-5.88,8.2-2.71,11.75,2.37,2.93,7.17,2.78,9.77.24a7.43,7.43,0,0,0-.2-10.72A7.18,7.18,0,0,0,351.56,506.81Z" transform="translate(-221 -471.09)" style="fill:#030406"/><path d="M451.35,501.33a13.33,13.33,0,0,1,12.4-2.75,14.36,14.36,0,0,1,4.79,3c0-1,0-1.93,0-2.9,2.94,0,5.88,0,8.82,0q0,14.72,0,29.43c-3,0-6.05,0-9.08,0,0-.84,0-1.68,0-2.52-5.5,5-15.19,4.21-19.49-1.95-4.61-6.69-3.78-17,2.56-22.31m8.32,5.44c-5.07,1.43-6.11,8.66-2.53,12.13,2.58,2.73,7.33,2.27,9.76-.44,3-3,2.32-8.81-1.37-11A7.23,7.23,0,0,0,459.67,506.77Z" transform="translate(-221 -471.09)" style="fill:#030406"/><path d="M399.45,498.67c3,0,6,0,9,0q0,14.72,0,29.43c-3,0-6,0-9,0C399.45,518.28,399.47,508.48,399.45,498.67Z" transform="translate(-221 -471.09)" style="fill:#030406"/><path d="M224.43,520.28a35.82,35.82,0,0,1,2-31.41c4.58,2.35,9.07,4.87,13.62,7.25.68.42,2.1.86,1.32,1.88a19.35,19.35,0,0,0-.65,16C235.3,516.18,229.86,518.21,224.43,520.28Z" transform="translate(-221 -471.09)" style="fill:#1a5ca8"/><path d="M285.93,494.17a41.68,41.68,0,0,1,4.28-4.27c8.26,7,12.48,18.26,11.74,29-5.78-.11-11.56-.47-17.34-.78a20.18,20.18,0,0,0-6.4-15.66c2.48-2.83,5.16-5.49,7.72-8.26Z" transform="translate(-221 -471.09)" style="fill:#f38a21"/><path d="M221,524.46c5.29-2.16,10.49-4.54,15.75-6.76a23,23,0,0,0,5.51,7.44,21.27,21.27,0,0,0,7.12,3.83c-1.35,5-3.07,9.95-4.54,14.94-.21.66-.52,2-1.51,1.48A36.51,36.51,0,0,1,221,525.32Z" transform="translate(-221 -471.09)" style="fill:#229ad7"/><path d="M279.15,521.59c.21-.51,0-1.8.86-1.62,5.59.33,11.18.86,16.76,1.27a36,36,0,0,1-15.19,27.53c-3.61-4.56-6.93-9.35-10.39-14C275.38,531.56,278.63,526.91,279.15,521.59Z" transform="translate(-221 -471.09)" style="fill:#fddd18"/><path d="M249.85,534.28a19.74,19.74,0,0,0,16.65-2.77c3.39,4.73,6.54,9.62,9.78,14.45-4.87,3.69-10.84,5.59-16.83,6.48-3.52,1.11-7.12-.05-10.63-.5-1.15-.3-2.55-.27-3.45-1.1,1.27-5.57,3-11.05,4.49-16.57Z" transform="translate(-221 -471.09)" style="fill:#23a751"/></svg>