<svg xmlns="http://www.w3.org/2000/svg" xmlns:xlink="http://www.w3.org/1999/xlink" viewBox="0 0 117.35 131.41"><defs><clipPath id="a" transform="translate(-192.84 -190.29)"><rect x="192.84" y="190.29" width="117.35" height="131.41" style="fill:none"/></clipPath><clipPath id="b" transform="translate(-192.84 -190.29)"><path d="M197.71,208.23c-1.19,1.54-2.91,3-2.43,5.07a4.24,4.24,0,0,0,2.25,2.12,16.08,16.08,0,0,1,1.69.37c-2.14,9-4.19,20.58-1.65,29.81,2.05,6.76-1.09,12.44-1.18,18.55,0,0,3.63,13.52,15.51,17l7.58,1.59s-12.77-21.94,10.77-42.48L203.8,211.72a4.16,4.16,0,0,0,.84-4,4,4,0,0,0-1.9-1.81,3.14,3.14,0,0,0-.89-.13c-1.69,0-3,1.41-4.14,2.42" style="fill:none"/></clipPath></defs><title>real-sociedad-logo</title><g style="clip-path:url(#a)"><path d="M225.72,243.55l-25-26.55c2.82,12.44,11.11,24,19.36,34.09l1.06-1.71a44.41,44.41,0,0,1,3.15-4.21Zm-29.3,20c.25-5.9,3.15-11.44,1.16-18-2.55-9.22-.49-20.84,1.65-29.81a16.2,16.2,0,0,0-1.69-.37,4.24,4.24,0,0,1-2.25-2.12c-.48-2.07,1.24-3.53,2.43-5.07,1.28-1.19,2.91-2.91,5-2.3a4,4,0,0,1,1.9,1.81,4.15,4.15,0,0,1-.84,4L229.94,240a35.11,35.11,0,0,1,3.78-2.44,3.06,3.06,0,0,1-1.38-2.64,3,3,0,0,1,1-2c-.44-.4-1.5-.22-2.12-.62l1.15-2.74a4.11,4.11,0,0,1-2.74-1,3,3,0,0,0-2.25-2c-1.46-.53-3.66.71-4.15-1.5a2.94,2.94,0,0,1,.31-2.51,4.44,4.44,0,0,1-.93-2.6,3.22,3.22,0,0,1,.62-1.68,3.83,3.83,0,0,1-.4-3,2.33,2.33,0,0,1,.93-1.23,3.64,3.64,0,0,1,.22-2.65,3.53,3.53,0,0,1,1.81-1.28c.09-1.19.57-2.56,1.81-2.91a3.11,3.11,0,0,1,1.28-.22,3.64,3.64,0,0,1,1.54-2.34,3.54,3.54,0,0,1,3.31.22,5.32,5.32,0,0,1,.92-2.25,3.21,3.21,0,0,1,2.6-.71,3.62,3.62,0,0,1,2.12,1.68,3,3,0,0,1,3-.88c.48-.66.53-1.72,1.5-2.12a2.9,2.9,0,0,1,3.09,0,13,13,0,0,1,2.16-1.19v-1.29h-2.49V195.9h2.47v-3.25h2.21v3.25h2.47v2.21h-2.47v1.23a3.69,3.69,0,0,1,2.23,2.42c.88-.66,2.21-1.52,3.49-1a2.81,2.81,0,0,1,1.72,1.68c1,.09,2.38-.09,3.09.88a10.7,10.7,0,0,1,1.85-1.28,3.2,3.2,0,0,1,3,.75l.62.93a3,3,0,0,1,2.74.44,3.84,3.84,0,0,1,1.15,2.21,2.88,2.88,0,0,1,2.6.62,4,4,0,0,1,.88,2.51,2.78,2.78,0,0,1,2,1.45,4.47,4.47,0,0,1,.18,2.3,3,3,0,0,1,1.41,2.34c.27,1.28-1.41,2.12,0,3.18a3.25,3.25,0,0,1-1,3.18,3.43,3.43,0,0,1-.93,3.62c-.62.62-1.72.09-2.47.44a3,3,0,0,0-2.78,1.59,2.75,2.75,0,0,1-2.47,1.54l1.06,2.82-2.07.53a3.51,3.51,0,0,1,.75,3.31,3,3,0,0,1-1,1.32,35.39,35.39,0,0,1,18.35,37.57,45.88,45.88,0,0,1,8.08,6.73c3.59,4.25,11.76,12.07,11.76,12.07a64.45,64.45,0,0,0-16.33,7.05l14.19,14.65-5.07,3.35-14-14.47c-30.37,22.73-43.77,13.4-43.77,13.4a56.88,56.88,0,0,0-14.16-11.55c-4.84-1-8.39-7.41-8.39-7.41-4.87-9.21-14.71-15.25-14.71-15.25-2.15-1.14-3.49-6.75-3.49-6.75-4.35-8.51-3.37-13-3.37-13Z" transform="translate(-192.84 -190.29)" style="fill:#fff"/><path d="M206.63,226.73c3.49,7.45,8.51,14.42,13.22,20.34q1.22-1.75,2.63-3.42l0,0ZM242,315.61a15.21,15.21,0,0,0,7,1.38c6.41,0,17.49-2.57,33.86-14.82l1.66-1.25,14.12,14.56,1.06-.7L285.38,300l2.62-1.52a74.33,74.33,0,0,1,13-6.11c-2.74-2.69-6.76-6.74-9-9.45a43.13,43.13,0,0,0-7.57-6.28l-1.31-.85.28-1.54a33.34,33.34,0,0,0,.52-5.87,32.89,32.89,0,0,0-17.64-29.2l-3.16-1.66,2.76-2.26A.91.91,0,0,0,266,235a1.19,1.19,0,0,0-.16-.91l-2.92-2.93,3.53-.9-1.28-3.4,3.25-.14a.83.83,0,0,0,.4-.12,5.15,5.15,0,0,1,4.46-3,4.69,4.69,0,0,1,1.6-.16,1.12,1.12,0,0,0,.05-.8l-.49-1.44,1.1-1a1.24,1.24,0,0,0,.33-.47,3.53,3.53,0,0,1-.12-3.8l.07-.15v-.22a1.61,1.61,0,0,0-.41-.41l-1.15-.81.17-1.4a3,3,0,0,0,0-1,1.26,1.26,0,0,0-.22-.1l-1.79-.3-.17-1.81a3.4,3.4,0,0,0-.2-1,1.54,1.54,0,0,0-.49,0l-2,.39-.65-2c-.06-.17-.11-.34-.16-.51s-.13-.44-.19-.57l-.11-.1s-.05,0-.18,0a1.3,1.3,0,0,0-.35,0l-1.66.47-1.41-2.11c-.06,0-.27,0-.49,0s-.53.38-.8.6l-2.25,1.73-1.3-1.79a7.2,7.2,0,0,0-.77-.05l-.74,0-1.52-.13-.51-1.44a.55.55,0,0,0-.2-.21l-.13,0a3.58,3.58,0,0,0-1.23.71l-2.71,2-1-3.25a1.36,1.36,0,0,0-.74-.86l-.23-.08-.45.15a5.44,5.44,0,0,0-1,.53c-.25.16-.51.32-.78.47l-1.3.74-1.22-.85a1.55,1.55,0,0,0-.45,0l-.13.08-.09.22a5.74,5.74,0,0,1-.66,1.23l-1,1.33-1.59-.46a.82.82,0,0,0-.62.29l-1.93,1.92L237.51,205a6,6,0,0,0-.63-.74,3,3,0,0,0-.47,0,3.09,3.09,0,0,0-.33,1l-.58,3.47-3-1.85a1.45,1.45,0,0,0-.71-.18.67.67,0,0,0-.23,0,3,3,0,0,0-.35.78l-.68,1.84H228.9a1.45,1.45,0,0,0-.34,0l-.19.08a2.17,2.17,0,0,0-.21.84l-.11,1.47-1.37.55a2.45,2.45,0,0,0-.7.35,3.07,3.07,0,0,0,.08.78l.42,1.59-1.35.94h0a1.69,1.69,0,0,0,.21,1.1l.77,1.4-1,1.24a1.69,1.69,0,0,0-.08.36,3,3,0,0,0,.55,1.14l1,1.49-1,1.18s0,.08,0,.14h.17l.68,0a5.54,5.54,0,0,1,1.76.25,5.46,5.46,0,0,1,3.5,2.79,9.14,9.14,0,0,0,.9.15l3.26.44-1.32,3.15a3.05,3.05,0,0,1,.5.37l1.94,1.74-1.93,1.76a.75.75,0,0,0-.25.37c0,.16.14.39.48.66l2.77,2.19-3.09,1.72a32.93,32.93,0,0,0-3.53,2.28l-1.7,1.26-29-31.32L202,210.2a1.12,1.12,0,0,0-.07-2c-.64-.06-1.61.87-2.33,1.54l-.13.12c-.2.25-.41.5-.62.76l-.43.52,2.91,3.09.65.32-.07.29,27,28.69-2.86,3.24a42.74,42.74,0,0,0-3,3.95l-2.77,4.46-2.09-2.55c-6.94-8.47-14.32-18.41-18.19-29.39-1.29,7-2,15.12-.2,21.76,1.46,4.79.57,9.16-.21,13a37,37,0,0,0-.86,5.72l-.8.12.71.15s-.65,4,3.17,11.44l.13.25.07.28c.54,2.27,1.67,4.81,2.3,5.22l.12.07c.42.26,10.45,6.49,15.56,16.16.82,1.46,3.71,5.54,6.79,6.2l.32.07.29.15A58.79,58.79,0,0,1,242,315.61m7,6.1c-6.34,0-9.51-2.08-9.85-2.32l-.23-.16-.18-.21a56,56,0,0,0-13.26-10.9c-5.52-1.41-9.18-7.75-9.59-8.48-4.36-8.26-13.15-13.93-13.84-14.36-2.66-1.5-4.07-6.16-4.52-8-4.46-8.84-3.57-13.81-3.45-14.35l0-.15A45.39,45.39,0,0,1,195,257c.74-3.63,1.43-7.05.31-10.76-2.54-9.21-.78-20.41,1.08-28.76a7,7,0,0,1-3.2-3.12l-.14-.27-.07-.29c-.67-2.85,1.08-4.93,2.24-6.3.21-.25.42-.5.62-.76l.26-.29.25-.23c1.19-1.12,3-2.82,5.5-2.82a5.61,5.61,0,0,1,1.55.22l.34.13a6.3,6.3,0,0,1,3,3l.08.19a6.32,6.32,0,0,1-.16,4.41l23.56,25.46,0,0a4.76,4.76,0,0,1-.31-2.15c0-.12,0-.25,0-.38l-.06,0-1.67-1.07.87-2.08a4.68,4.68,0,0,1-1.28-1l-.36-.41-.15-.52c-.07-.24-.49-.36-.57-.38l-.21-.07h-.75l-.66,0a4,4,0,0,1-4.24-3.24,6.18,6.18,0,0,1,0-2.88,5.85,5.85,0,0,1-.64-2.85l0-.23a7.22,7.22,0,0,1,.35-1.46,5.92,5.92,0,0,1,0-3.52,4.1,4.1,0,0,1,.69-1.38,5.3,5.3,0,0,1,.72-3.06,4.79,4.79,0,0,1,1.7-1.63,4.85,4.85,0,0,1,3.12-3.54l.39-.13a4.77,4.77,0,0,1,2.19-2.31,5.37,5.37,0,0,1,2.9-.55,7.18,7.18,0,0,1,.49-.76l.24-.28a5.21,5.21,0,0,1,3.8-1.41h.58l.22,0a4.49,4.49,0,0,1,2.2,1,5.25,5.25,0,0,1,1.1-.28,4,4,0,0,1,1.83-1.79,5,5,0,0,1,1.5-.58v-4.34h2.47v-3.25h6.94v3.25h2.47v4.69a4.62,4.62,0,0,1,1.64.26,5,5,0,0,1,2.34,1.62,6.44,6.44,0,0,1,1.61.31,7.09,7.09,0,0,1,1-.55l.33-.16.37,0a9.53,9.53,0,0,1,1.2-.08,4.86,4.86,0,0,1,3.85,1.6,5,5,0,0,1,3.06,1.08,4.42,4.42,0,0,1,1.36,1.71,4.75,4.75,0,0,1,2.59,1.3,5.53,5.53,0,0,1,1.33,2.49,5.12,5.12,0,0,1,2,2.09,5.62,5.62,0,0,1,.49,2.36,5,5,0,0,1,1.34,3.1,4.08,4.08,0,0,1-.27,2l.2.79a5.47,5.47,0,0,1-.78,4.4,5.8,5.8,0,0,1-1.85,4.71,3.72,3.72,0,0,1-2.63.94h-.63l-.24.11-.48,0a1.79,1.79,0,0,0-.71.16,4.85,4.85,0,0,1-1.6,2l1.16,3.1-2,.51a6.3,6.3,0,0,1-.13,2.16,37.6,37.6,0,0,1,18,32.14,38.28,38.28,0,0,1-.35,5.18,45.47,45.47,0,0,1,7.28,6.27c3.51,4.15,11.55,11.86,11.63,11.94l3,2.92-4.08,1.07a58.13,58.13,0,0,0-13.1,5.33l14,14.49-9.08,6-14-14.4c-16.51,12-28.11,14.53-35,14.53" transform="translate(-192.84 -190.29)" style="fill:#fff"/><path d="M225.72,243.55l-25-26.55c2.82,12.44,11.11,24,19.36,34.09l1.06-1.71a44.41,44.41,0,0,1,3.15-4.21Zm-29.3,20c.25-5.9,3.15-11.44,1.16-18-2.55-9.22-.49-20.84,1.65-29.81a16.2,16.2,0,0,0-1.69-.37,4.24,4.24,0,0,1-2.25-2.12c-.48-2.07,1.24-3.53,2.43-5.07,1.28-1.19,2.91-2.91,5-2.3a4,4,0,0,1,1.9,1.81,4.15,4.15,0,0,1-.84,4L229.94,240a35.11,35.11,0,0,1,3.78-2.44,3.06,3.06,0,0,1-1.38-2.64,3,3,0,0,1,1-2c-.44-.4-1.5-.22-2.12-.62l1.15-2.74a4.11,4.11,0,0,1-2.74-1,3,3,0,0,0-2.25-2c-1.46-.53-3.66.71-4.15-1.5a2.94,2.94,0,0,1,.31-2.51,4.44,4.44,0,0,1-.93-2.6,3.22,3.22,0,0,1,.62-1.68,3.83,3.83,0,0,1-.4-3,2.33,2.33,0,0,1,.93-1.23,3.64,3.64,0,0,1,.22-2.65,3.53,3.53,0,0,1,1.81-1.28c.09-1.19.57-2.56,1.81-2.91a3.11,3.11,0,0,1,1.28-.22,3.64,3.64,0,0,1,1.54-2.34,3.54,3.54,0,0,1,3.31.22,5.32,5.32,0,0,1,.92-2.25,3.21,3.21,0,0,1,2.6-.71,3.62,3.62,0,0,1,2.12,1.68,3,3,0,0,1,3-.88c.48-.66.53-1.72,1.5-2.12a2.9,2.9,0,0,1,3.09,0,13,13,0,0,1,2.16-1.19v-1.29h-2.49V195.9h2.47v-3.25h2.21v3.25h2.47v2.21h-2.47v1.23a3.69,3.69,0,0,1,2.23,2.42c.88-.66,2.21-1.52,3.49-1a2.81,2.81,0,0,1,1.72,1.68c1,.09,2.38-.09,3.09.88a10.7,10.7,0,0,1,1.85-1.28,3.2,3.2,0,0,1,3,.75l.62.93a3,3,0,0,1,2.74.44,3.84,3.84,0,0,1,1.15,2.21,2.88,2.88,0,0,1,2.6.62,4,4,0,0,1,.88,2.51,2.78,2.78,0,0,1,2,1.45,4.47,4.47,0,0,1,.18,2.3,3,3,0,0,1,1.41,2.34c.27,1.28-1.41,2.12,0,3.18a3.25,3.25,0,0,1-1,3.18,3.43,3.43,0,0,1-.93,3.62c-.62.62-1.72.09-2.47.44a3,3,0,0,0-2.78,1.59,2.75,2.75,0,0,1-2.47,1.54l1.06,2.82-2.07.53a3.51,3.51,0,0,1,.75,3.31,3,3,0,0,1-1,1.32,35.39,35.39,0,0,1,18.35,37.57,45.88,45.88,0,0,1,8.08,6.73c3.59,4.25,11.76,12.07,11.76,12.07a64.45,64.45,0,0,0-16.33,7.05l14.19,14.65-5.07,3.35-14-14.47c-30.37,22.73-43.77,13.4-43.77,13.4a56.88,56.88,0,0,0-14.16-11.55c-4.84-1-8.39-7.41-8.39-7.41-4.87-9.21-14.71-15.25-14.71-15.25-2.15-1.14-3.49-6.75-3.49-6.75-4.35-8.51-3.37-13-3.37-13Z" transform="translate(-192.84 -190.29)" style="fill:#fff"/><path d="M204.14,222.93c3.5,9.32,9.69,17.95,15.77,25.48a46.47,46.47,0,0,1,3.18-4.24l.51-.58Zm37.37,93.31a15.53,15.53,0,0,0,7.48,1.54c6.53,0,17.79-2.6,34.33-15l1.1-.83,14.09,14.53,2.42-1.6-14.27-14.74,1.74-1a70.84,70.84,0,0,1,14.09-6.45c-2.66-2.6-7.38-7.29-9.93-10.31a43.9,43.9,0,0,0-7.74-6.43l-.87-.57.18-1a34.23,34.23,0,0,0,.53-6,33.69,33.69,0,0,0-18.07-29.9l-2.1-1.1,1.83-1.5a1.49,1.49,0,0,0,.46-.58,1.94,1.94,0,0,0-.36-1.73l-1.94-1.94,3-.78-1.2-3.21,2.16-.1a1.26,1.26,0,0,0,1.09-.57,4.35,4.35,0,0,1,3.9-2.54,3.94,3.94,0,0,1,1.5-.15h.35a1.87,1.87,0,0,0,.41-1.86l-.33-1,.73-.69a1.84,1.84,0,0,0,.62-1.27,2.76,2.76,0,0,1-.24-3.24,2.54,2.54,0,0,0,.18-.43l0-.16v-.12a1.54,1.54,0,0,0-.75-1.06l-.76-.54.11-.93a3,3,0,0,0,0-1.45,1.21,1.21,0,0,0-.83-.57l-1.18-.2-.11-1.2a2.62,2.62,0,0,0-.47-1.59,1.16,1.16,0,0,0-.73-.2,2.46,2.46,0,0,0-.44,0l-1.34.26-.43-1.3c-.05-.16-.1-.33-.15-.49-.15-.51-.25-.82-.41-.94l-.13-.1a1.58,1.58,0,0,0-1.27-.11l-1.1.31-1.19-1.78c-.09-.09-.3-.21-.85-.21l-.44,0a9.82,9.82,0,0,0-1,.75l-1.59,1.23-.95-1.3c-.12-.17-.83-.19-1.26-.21l-.7,0-1-.09-.33-1a1.25,1.25,0,0,0-.68-.69l-.11,0c-.59-.22-1.67.58-2,.82l-1.8,1.35-.64-2.15a2.13,2.13,0,0,0-1.24-1.39l-.48-.17-.7.23a5.72,5.72,0,0,0-1.13.61c-.24.16-.49.31-.75.46l-.86.49-.81-.56a1.4,1.4,0,0,0-1.34,0l-.26.14a2.67,2.67,0,0,0-.26.52,5.09,5.09,0,0,1-.57,1.08l-.65.88-1.05-.31a1.48,1.48,0,0,0-1.41.49l-1.28,1.28-1.08-1.45c-.22-.29-.72-1-1-1.06h-.29a1.53,1.53,0,0,0-.95.19,3.88,3.88,0,0,0-.56,1.47l-.38,2.3-2-1.23a2.11,2.11,0,0,0-1.73-.18c-.33.17-.49.57-.72,1.22l-.48,1.32H228.9a1.67,1.67,0,0,0-.64.09l-.21.07c-.4.11-.63.87-.68,1.52l-.07,1-.91.36a2.61,2.61,0,0,0-1,.63,2.16,2.16,0,0,0,0,1.44l.28,1.06-.89.63a.81.81,0,0,0-.31.36,2.37,2.37,0,0,0,.26,1.79l.51.93-.67.82a1.7,1.7,0,0,0-.27.82,3.19,3.19,0,0,0,.68,1.62l.64,1-.77.89a2,2,0,0,0,0,1.15,1.09,1.09,0,0,0,0,.14,6.24,6.24,0,0,0,.87,0l.65,0a4.76,4.76,0,0,1,1.52.22,4.56,4.56,0,0,1,3.14,2.63,4,4,0,0,0,1.4.33l2.23.3-1.23,2.93a2.51,2.51,0,0,1,1,.54l1.28,1.16-1.27,1.17a1.44,1.44,0,0,0-.51.91c0,.2-.05.67.78,1.33l1.84,1.45-2,1.14a33.81,33.81,0,0,0-3.61,2.33l-1.13.83-28-30.29.88-1.06a2.64,2.64,0,0,0,.58-2.39,2.46,2.46,0,0,0-1-.92c-1.07-.24-2.16.8-3.14,1.72l-.17.16c-.21.26-.42.52-.65.78-.94,1.12-1.54,1.88-1.45,2.69a2.64,2.64,0,0,0,1.17,1.14,3.28,3.28,0,0,0,.48.1l-.51-2.26,2.91,3.09.21.11,0,.09,26.82,28.48-2.38,2.7a43.23,43.23,0,0,0-3,4l-2.19,3.53-1.39-1.69c-7.51-9.16-15.52-20-19-32.06-1.62,7.69-2.93,17.37-.79,25.15,1.4,4.62.57,8.7-.23,12.64a37.6,37.6,0,0,0-.88,5.84l-.42.06.35.07s-.74,4.2,3.24,12l.13.35c.57,2.38,1.79,5.25,2.7,5.73.51.31,10.35,6.42,15.36,15.9.88,1.57,3.95,5.88,7.33,6.61l.21,0,.19.1a57.93,57.93,0,0,1,14.45,11.72m7.48,4.68c-6.2,0-9.27-2.09-9.4-2.18l-.27-.25a56.28,56.28,0,0,0-13.55-11.11c-5.35-1.31-9-7.84-9.19-8.12-4.62-8.74-14.06-14.62-14.16-14.68-2.43-1.28-3.8-6.16-4.14-7.54-4.46-8.8-3.47-13.7-3.43-13.9l0-.2a44,44,0,0,1,.9-5.73c.76-3.73,1.47-7.25.29-11.14-2.56-9.29-.65-20.73,1.26-29.06l-.3-.08A5.8,5.8,0,0,1,193.9,214l-.14-.38c-.58-2.46,1-4.28,2.07-5.6.22-.26.44-.52.64-.78l.17-.19.25-.24c1.17-1.1,2.77-2.61,5-2.61a4.78,4.78,0,0,1,1.33.19l.23.09a5.49,5.49,0,0,1,2.66,2.59l.05.13a5.6,5.6,0,0,1-.34,4.31l24.38,26.34q.57-.39,1.16-.76a4.08,4.08,0,0,1-.53-2.38,3.83,3.83,0,0,1,.16-.88,3.13,3.13,0,0,1-.54-.27l-1.11-.71.92-2.19a4.05,4.05,0,0,1-1.72-1.13l-.24-.27-.1-.35A1.5,1.5,0,0,0,227,228l-.14,0a1.68,1.68,0,0,0-.53-.05h-.52l-.63,0a3.17,3.17,0,0,1-3.46-2.61,5.14,5.14,0,0,1,0-2.79,5.26,5.26,0,0,1-.69-2.73v-.15a5.92,5.92,0,0,1,.41-1.55,5.18,5.18,0,0,1-.13-3.32,3.48,3.48,0,0,1,.74-1.35,4.71,4.71,0,0,1,.58-2.9,4.16,4.16,0,0,1,1.71-1.52,4.18,4.18,0,0,1,2.7-3.31,4,4,0,0,1,.69-.21,4.16,4.16,0,0,1,2-2.28,4.76,4.76,0,0,1,3-.4,6.41,6.41,0,0,1,.67-1.15l.16-.18a4.36,4.36,0,0,1,3.24-1.18l.54,0h.15a3.92,3.92,0,0,1,2.17,1.13,4.5,4.5,0,0,1,1.76-.45,3.47,3.47,0,0,1,1.69-1.84,4.36,4.36,0,0,1,1.92-.59v-4.24h2.47v-3.25h5.34v3.25h2.47v4.78a4,4,0,0,1,2.18.13,4.33,4.33,0,0,1,2.17,1.64,5.5,5.5,0,0,1,2.13.43,7.37,7.37,0,0,1,1.2-.73l.22-.1.24,0a9.11,9.11,0,0,1,1.1-.07,4.09,4.09,0,0,1,3.29,1.36l.17.24a4.32,4.32,0,0,1,3,.91,3.83,3.83,0,0,1,1.3,1.81,4.05,4.05,0,0,1,2.58,1.13,4.83,4.83,0,0,1,1.2,2.45,4.32,4.32,0,0,1,2,1.92,5,5,0,0,1,.4,2.32,4.3,4.3,0,0,1,1.35,2.86,3.72,3.72,0,0,1-.44,2.19h0l.2.15.21.6a4.72,4.72,0,0,1-.83,4,5,5,0,0,1-1.57,4.34,2.9,2.9,0,0,1-2.09.74h-.84l-.29.14h-.25c-.65,0-1.27.28-1.37.55a4.05,4.05,0,0,1-1.88,2L271.7,233l-1.87.48a5.43,5.43,0,0,1,0,2.67l0,.14c0,.1-.07.2-.12.29a36.8,36.8,0,0,1,18.15,31.79,37.3,37.3,0,0,1-.42,5.55,45.66,45.66,0,0,1,7.54,6.43c3.53,4.17,11.59,11.9,11.67,12l2,1.93-2.7.71a60.2,60.2,0,0,0-14.19,5.9l14.09,14.55-7.73,5.11-14-14.42c-16.64,12.19-28.25,14.79-35.1,14.79Z" transform="translate(-192.84 -190.29)" style="fill:#fff"/><path d="M303.37,315.17l-5.07,3.35-14-14.47c-30.37,22.73-43.77,13.4-43.77,13.4a56.92,56.92,0,0,0-14.16-11.55c-4.84-1-8.39-7.41-8.39-7.41-4.86-9.21-14.71-15.25-14.71-15.25-2.15-1.14-3.48-6.75-3.48-6.75-4.35-8.51-3.37-13-3.37-13,5.72,16.48,18.18,18.76,22.18,19.06l.06.14a35.31,35.31,0,1,1,67.06-8,45.86,45.86,0,0,1,8.08,6.73c3.59,4.25,11.76,12.07,11.76,12.07a64.28,64.28,0,0,0-16.33,7.05Z" transform="translate(-192.84 -190.29)" style="fill:#020000"/></g><path d="M233.53,237.53a3.4,3.4,0,0,1-1.19-2.65,3,3,0,0,1,1-2c-.44-.4-1.5-.22-2.12-.62l1.15-2.74a4.12,4.12,0,0,1-2.74-1,3,3,0,0,0-2.25-2c-1.46-.53-3.66.7-4.15-1.5a3,3,0,0,1,.31-2.51,4.42,4.42,0,0,1-.93-2.6,3.24,3.24,0,0,1,.62-1.68,3.84,3.84,0,0,1-.4-3,2.31,2.31,0,0,1,.93-1.23,3.64,3.64,0,0,1,.22-2.65,3.51,3.51,0,0,1,1.81-1.28c.09-1.19.57-2.56,1.81-2.91a3.1,3.1,0,0,1,1.28-.22,3.65,3.65,0,0,1,1.54-2.34,3.52,3.52,0,0,1,3.31.22,5.34,5.34,0,0,1,.93-2.25,3.21,3.21,0,0,1,2.6-.71,3.62,3.62,0,0,1,2.12,1.68,3,3,0,0,1,3-.88c.48-.66.53-1.72,1.5-2.12a2.89,2.89,0,0,1,3.09,0l.33.24a3.46,3.46,0,0,1,1.82-1.43v-1.29h-2.48V195.9h2.46v-3.25h2.21v3.25h2.47v2.21h-2.47v1.23a3.68,3.68,0,0,1,2.23,2.42c.88-.66,2.21-1.52,3.48-1a2.81,2.81,0,0,1,1.72,1.67c1,.09,2.38-.09,3.09.88l.18.18a4.11,4.11,0,0,1,1.68-1.46,3.21,3.21,0,0,1,3,.75l.62.93a3,3,0,0,1,2.74.44,3.84,3.84,0,0,1,1.15,2.21,2.89,2.89,0,0,1,2.6.62,4,4,0,0,1,.88,2.52,2.77,2.77,0,0,1,2,1.45,4.47,4.47,0,0,1,.18,2.3,3,3,0,0,1,1.41,2.34c.26,1.28-1.41,2.12,0,3.18a3.25,3.25,0,0,1-1,3.18,3.42,3.42,0,0,1-.93,3.62c-.62.62-1.72.09-2.47.44a3,3,0,0,0-2.78,1.59,2.76,2.76,0,0,1-2.47,1.54l1.06,2.82-2.07.53a3.52,3.52,0,0,1,.75,3.31,3.06,3.06,0,0,1-1,1.32Z" transform="translate(-192.84 -190.29)" style="fill:#020000"/><path d="M255.77,206.33c1.19-.48.75.75,1.23,1.19.18.53.75.71,1.15,1a3.25,3.25,0,0,0,.31,2.65,3.36,3.36,0,0,0,1.59,1.1,2.62,2.62,0,0,0,.88,2.43l.62.4a2.79,2.79,0,0,0-1.32,1.59,2.37,2.37,0,0,0,.4,2c-2.34.88-5.6.93-7.46-.75a2.49,2.49,0,0,0,.57-2.56c-.22-.57.88-1,1-1.59a2.41,2.41,0,0,0-.31-2.43l-.75-.62a2.75,2.75,0,0,0,.88-1.85,2.55,2.55,0,0,0-1.19-2.07l-.93-.26a1.86,1.86,0,0,0-.44-1.15,3,3,0,0,0,1.37-1,3,3,0,0,0,2.38,1.9" transform="translate(-192.84 -190.29)" style="fill:#eb2228"/><path d="M248.62,205.36a1.94,1.94,0,0,0-.53,1.24,2.35,2.35,0,0,0-1.85,1.14,2.88,2.88,0,0,0,.09,2.34l.75.75a2.52,2.52,0,0,0-1.15,2,2.61,2.61,0,0,0,1.15,2,2.52,2.52,0,0,0-.31,2.43,5.33,5.33,0,0,0,.92,1.06,8.17,8.17,0,0,1-7.5.88,2.81,2.81,0,0,0,.26-2.38,2.5,2.5,0,0,0-1.9-1.41A3.54,3.54,0,0,0,240,214c.31-.49,0-1,.09-1.59a2.93,2.93,0,0,0,1.76-1.32,3.18,3.18,0,0,0,.18-2.29,4.43,4.43,0,0,0,1.54-1.32l.18-1.37a3.86,3.86,0,0,0,2.74.13,2.75,2.75,0,0,0,1.32-1.32c.4,0,.53.35.79.48" transform="translate(-192.84 -190.29)" style="fill:#eb2228"/><path d="M263.36,207.44a3.16,3.16,0,0,0,2.21.18,3.15,3.15,0,0,0,3.13,1.72h.22a3.43,3.43,0,0,0,1.46,2.34l.93.31a3.26,3.26,0,0,0,1.37,2.87,3,3,0,0,0,.57,2.78,3.52,3.52,0,0,0-.31,3.18c-.44.44-1.19-.09-1.59.57-.27.4.13,1.23-.71,1-.18.09-.49-.22-.44.13l0-.13a7.83,7.83,0,0,1-4.45-1.9,3.52,3.52,0,0,0,1.72-1.59,2.93,2.93,0,0,0-.13-1.94c-1.19-.79-1.19-3-3-2.87a3.2,3.2,0,0,0-.09-2.47c-1.63-.79.35-2.65-.92-3.7-.18-.53-1.06-.84-1-1.28.53,0,.62.71,1.15.79" transform="translate(-192.84 -190.29)" style="fill:#eb2228"/><path d="M237.28,207.48a3.43,3.43,0,0,0-.49,3.31l.18.17a2.89,2.89,0,0,0-1.28,2.34c0,.48.4,1,.44,1.37-.66.31-1.68.75-1.63,1.77a2.49,2.49,0,0,0-1.19,1.59,2.29,2.29,0,0,0,.62,2,11.31,11.31,0,0,1-2.73,2.16l-.75.13a2,2,0,0,0-.88-1.15,4.66,4.66,0,0,0-1.59.26,3.42,3.42,0,0,0-.22-3.13,2.84,2.84,0,0,0,.57-2.87c-.35-.53.53-.84.66-1.37l.31-1.41a2.77,2.77,0,0,0,1.9-1.41l.4-1.19a3.83,3.83,0,0,0,2.6-1,2.77,2.77,0,0,0,.75-2,3.9,3.9,0,0,0,2.34.4" transform="translate(-192.84 -190.29)" style="fill:#eb2228"/><path d="M248.8,208.67a2.42,2.42,0,0,0-.71,1.37,1.21,1.21,0,0,1-.88-.84c-.26-.49.18-.84.4-1.19.75-.88.7.4,1.19.66" transform="translate(-192.84 -190.29)" style="fill:#deb13f"/><path d="M253.56,208.67a1.36,1.36,0,0,1-.75,1.41c-.35-.09-.35-.66-.57-1-.93-.44.09-.88.18-1.37.62,0,.93.57,1.15.93" transform="translate(-192.84 -190.29)" style="fill:#deb13f"/><path d="M253.43,212.2a1.5,1.5,0,0,1,.13,1.37,1.24,1.24,0,0,1-1.1.66c-.44-.31-.84-.84-1.37-1.15-.22-.84.79-.7,1.06-1.37.53-.13.88.22,1.28.49" transform="translate(-192.84 -190.29)" style="fill:#deb13f"/><path d="M249.68,213a3.19,3.19,0,0,0-1.46,1.19,1.32,1.32,0,0,1-1-1,1.38,1.38,0,0,1,.84-1.32,2.06,2.06,0,0,1,1.63,1.15" transform="translate(-192.84 -190.29)" style="fill:#deb13f"/><path d="M251.53,214.59c.26.62,1.45.53,1.5,1.41a1.26,1.26,0,0,1-.75,1.45c-.09.09-.22,0-.31.18a4.27,4.27,0,0,0,1.85,1.68,7.87,7.87,0,0,0,8.16-.4c.4-.75-.93-.53-.93-1.32a1.23,1.23,0,0,1,.75-1.45c.53-.27,1.41.26,1.46-.57a1.49,1.49,0,0,1,1.45-.4c1.5.35-.13,2.12,1.46,2.12a1.25,1.25,0,0,1,.4,1.59,1.34,1.34,0,0,1-1.5.57,2.77,2.77,0,0,0-1-.31c.13,1.54,1.81,2.87,3.22,3.53a8.6,8.6,0,0,0,4.72.53c.13-.35-.31-.84.13-1.15.71-.31,1.1.53,1.76.62.49.27,1.06-.26,1.46.18.09.62-.57.66-.93.79-.79-.22-1.19.44-1.81.57a8.1,8.1,0,0,1-8.38-2.25,5.74,5.74,0,0,1-1.37-1.94,11.39,11.39,0,0,1-10.9-.53c-.66-.31-1.41-1.59-2.07-.35a11.16,11.16,0,0,1-9.84,2,12.16,12.16,0,0,1-3-1.41l-.31,0a8,8,0,0,1-6.71,4.72,8.44,8.44,0,0,1-4.1-.57c-.31-.26-.22-.62,0-1,.4-.53,1.06,0,1.59-.22s1.1-.93,1.85-.71c.53.31-.18,1,.44,1.28a6.57,6.57,0,0,0,5.12-3.4c-.18-.4-.79-.66-.88-1.19.13-.53.18-1.24.84-1.46.84.09.26-1,.62-1.32a1.34,1.34,0,0,1,1.45-.53,1.52,1.52,0,0,1,1,1c.7.09,1.63,0,1.85.93a1.39,1.39,0,0,1-.75,1.54l-.84.18a8.78,8.78,0,0,0,8.82.57,6.37,6.37,0,0,0,2.21-1.72c0-.53-.84-.22-1.19-.48a1.29,1.29,0,0,1-.57-1.59c.13-1,1.41-.35,1.59-1.15,0-.53.62-.75,1-.88a1.39,1.39,0,0,1,1.41.79" transform="translate(-192.84 -190.29)" style="fill:#deb13f"/><path d="M268.6,225.26a1.37,1.37,0,0,1,.31,1.59,1.31,1.31,0,0,1-1.59.57c-2-1.32-4.5-1.72-6.84-2.43a46.37,46.37,0,0,0-27.66,2.69c-.62,0-1-.62-1.23-1.1-.22-1.45,1.45-1.63,2.34-2.16,10.59-4,24.44-4.37,34.67.84" transform="translate(-192.84 -190.29)" style="fill:#deb13f"/><path d="M265.69,233.42a1.41,1.41,0,0,1,.4,1.63,1.58,1.58,0,0,1-1.54.57c-8.38-3.53-19.76-3.62-28,.31-.44,0-1.15.13-1.41-.4s-.57-1.06-.18-1.5c1.85-1.28,4.06-1.68,6.09-2.43a38.93,38.93,0,0,1,24.66,1.81" transform="translate(-192.84 -190.29)" style="fill:#deb13f"/><path d="M300.06,314.46a4.79,4.79,0,0,1-1.54,1.06c-1.15-1-9.44-9.29-12.35-12.29l1.59-1.1Z" transform="translate(-192.84 -190.29)" style="fill:#deb13f"/><path d="M286.8,303.29c3.06,3.14,10.16,10.21,11.78,11.72l.12-.06a4.87,4.87,0,0,0,.78-.48L287.7,302.66ZM298.46,316l-.22-.2c-1.21-1.07-9.58-9.43-12.38-12.31l-.34-.35,2.27-1.58,12.8,12.83-.21.29a3.64,3.64,0,0,1-1.31,1l-.36.2Z" transform="translate(-192.84 -190.29)" style="fill:#deb13f"/><path d="M218.51,258.31a33.94,33.94,0,0,1,32.41-23.86c.55,0,1.21,0,1.76,0a22.29,22.29,0,0,0-9,10.81,25.61,25.61,0,0,0-14.65,6.35,29.09,29.09,0,0,0-10.77,6.93Z" transform="translate(-192.84 -190.29)" style="fill:#d67931"/><path d="M254.91,265.19a54.94,54.94,0,0,0-15.34,10c-5.25-4.23-9.93-9.75-11.16-16.41a7.3,7.3,0,0,1,1.72-6.09c3.57-3.49,8.2-5.16,13.23-5.74-.09,4,1.85,7.32,4,10.1,1.94,3.22,4.5,5.56,7.37,8.07Z" transform="translate(-192.84 -190.29)" style="fill:#d67931"/><path d="M278.66,249A33.77,33.77,0,0,1,269,261.79a33.87,33.87,0,0,0-13,2.65c-4.72-4-9.09-9-10.86-15-1-3.53,1.63-6.18,3.18-9a18.92,18.92,0,0,1,6.84-5.6,35.13,35.13,0,0,1,6.31,1.41c-4.15,1.63-7.28,5-9.53,8.82,1.19.79,2.52,1.59,3.79,2.34a88.14,88.14,0,0,1,11.82,9.53h.18a21.38,21.38,0,0,0,6.75-12.75c1.2.6,4.15,4.81,4.15,4.81" transform="translate(-192.84 -190.29)" style="fill:#d67931"/><path d="M279.76,250.53a33.67,33.67,0,0,1,5.08,17.84,34.16,34.16,0,0,1-.42,5.33l-.08.25c-6.66-3.58-12-9.61-13.62-11.55a37.25,37.25,0,0,0,9-11.87" transform="translate(-192.84 -190.29)" style="fill:#d67931"/><path d="M234.37,232.32c9.26-4.54,22.54-4.85,31.94-.44a19.42,19.42,0,0,1-1.5-2.21c.75-.48,1.9-.44,2.73-.79-10.06-4.54-24.53-4.68-34.32.39l0,0,3.16.34Z" transform="translate(-192.84 -190.29)" style="fill:#deb13f"/><path d="M267.85,239.07a11.24,11.24,0,0,1-.84,1.32c-1,0-.93-1.63-1.94-1a.77.77,0,0,0-.22,1.15l1.41.84c-.13.57-.66,1-1,1.5-1.28.13-2.25-3-3.31-.71.22,1.28,1.68,1.1,2.3,2.12l-1.46,1.9a12,12,0,0,1-2.29-1.85c-.35-.13-.79-.31-1.15,0a1.17,1.17,0,0,0-.35,1.32c.79.62,1.81,1.23,2.6,2-.26.53-.75,1.32-1.28,1.28a28.11,28.11,0,0,0-3.35-2.3,22.94,22.94,0,0,0-3-2,13.35,13.35,0,0,1,2.3-3,16.24,16.24,0,0,1,7.59-4.54,32.23,32.23,0,0,1,3.93,1.94" transform="translate(-192.84 -190.29)" style="fill:#d67931"/><path d="M273.32,243a18.57,18.57,0,0,1-5.78,11.82c-2.07-1.54-3.66-3.09-5.74-4.77a9.12,9.12,0,0,1,1-1.32c1.5.13,2.21,3.31,3.75,1.37a1.06,1.06,0,0,0-.53-1.37,9.25,9.25,0,0,1-2-1.54,9,9,0,0,1,1.41-2c1,.18,1.23,1.81,2.43,1.15a1.06,1.06,0,0,0,.18-1.28,5.44,5.44,0,0,1-1.59-1.1c.09-.57.66-1,1-1.54.88-.09.88,1.54,1.9,1a1,1,0,0,0,.31-1c-.4-.57-1.06-.44-1.46-1l1-1.54a24.1,24.1,0,0,1,4.19,3.13" transform="translate(-192.84 -190.29)" style="fill:#d67931"/><path d="M243.89,317.85a23.3,23.3,0,0,0-32.66-29.74,37.21,37.21,0,0,0-4.29-3.67c-4.25-1.52-5.45-6.1-5.45-6.1a75.5,75.5,0,0,1-4-9.69c8.82,17.1,25.38,14.49,25.38,14.49s7.54-.09,17.86-7.62c15.26-13.82,28.95-12.87,28.95-12.87s6.37,8.2,14.58,12.26a41.88,41.88,0,0,1,8.24,6.76c3.49,4.12,11.08,11.49,11.08,11.49-3.87,1-9,3.12-17.12,8-23.54,18.68-37,18.19-42.55,16.68" transform="translate(-192.84 -190.29)" style="fill:#0055b8"/><path d="M238.19,276.13c-8.93,6-16.54,6.43-18.09,6.44l-.11-.21a34.07,34.07,0,0,1-2.34-20.67l.22-.66c2.87-3,5.38-5.1,9.26-6.51-1.32,7.49,5.25,16.32,6.26,16.94a31,31,0,0,0,4.68,4.63Z" transform="translate(-192.84 -190.29)" style="fill:#d67931"/><path d="M243,317.62a11.6,11.6,0,0,1-2.12-.86,50.26,50.26,0,0,0-13.13-11.63c-4.7-1-8.82-6.88-8.82-6.88a41.35,41.35,0,0,0-7-9.5A22.38,22.38,0,0,1,243,317.62" transform="translate(-192.84 -190.29)" style="fill:#fff"/><path d="M240.91,316.72a12.21,12.21,0,0,0,2,.83A22.33,22.33,0,0,0,212,288.78a41.06,41.06,0,0,1,6.94,9.45c0,.05,4.17,5.86,8.78,6.85h0a50.76,50.76,0,0,1,13.14,11.63m2.11,1-.05,0a11.39,11.39,0,0,1-2.13-.86h0a50.77,50.77,0,0,0-13.1-11.61c-4.66-1-8.81-6.85-8.85-6.9a41,41,0,0,0-7-9.49l-.06-.06.07,0A22.44,22.44,0,0,1,243,317.65Z" transform="translate(-192.84 -190.29)" style="fill:#020000"/><path d="M257.09,227.34l3.7.77c.67.14,1.12.66,1,1.17a1.11,1.11,0,0,1-1.39.67l-3.7-.77c-.67-.14-1.12-.66-1-1.17a1.11,1.11,0,0,1,1.39-.67" transform="translate(-192.84 -190.29)" style="fill:#eb2228"/><path d="M256.77,227.36a1,1,0,0,0-1,.65c-.1.47.34,1,1,1.09l3.7.77a1.57,1.57,0,0,0,.31,0,1,1,0,0,0,1-.65c.1-.47-.34-1-1-1.09l-3.7-.77a1.54,1.54,0,0,0-.31,0m4,2.67a1.68,1.68,0,0,1-.34,0l-3.7-.77a1.18,1.18,0,0,1-1.07-1.24,1.07,1.07,0,0,1,1.13-.75,1.69,1.69,0,0,1,.34,0l3.7.77a1.18,1.18,0,0,1,1.07,1.24,1.07,1.07,0,0,1-1.13.75" transform="translate(-192.84 -190.29)" style="fill:#020000"/><polygon points="57.62 38.03 60.37 37.05 57.65 35.83 54.9 37.05 57.62 38.03" style="fill:#006fba"/><polygon points="57.62 38.03 60.37 37.05 57.65 35.83 54.9 37.05 57.62 38.03" style="fill:#0055b8"/><path d="M242.8,227.35l-3.72.8c-.67.14-1.12.67-1,1.18a1.12,1.12,0,0,0,1.41.65l3.72-.8c.67-.14,1.12-.67,1-1.18a1.12,1.12,0,0,0-1.41-.65" transform="translate(-192.84 -190.29)" style="fill:#eb2228"/><path d="M243.14,227.37a1.59,1.59,0,0,0-.33,0l-3.72.8a1.34,1.34,0,0,0-.85.54.73.73,0,0,0-.12.56,1,1,0,0,0,1,.64,1.57,1.57,0,0,0,.33,0l3.72-.8a1.35,1.35,0,0,0,.85-.54.73.73,0,0,0,.11-.56,1,1,0,0,0-1-.65m-4,2.7h0a1.09,1.09,0,0,1-1.13-.74.86.86,0,0,1,.13-.65,1.47,1.47,0,0,1,.93-.6l3.72-.8a1.7,1.7,0,0,1,.35,0,1.08,1.08,0,0,1,1.13.74.84.84,0,0,1-.13.65,1.45,1.45,0,0,1-.93.6l-3.72.8a1.66,1.66,0,0,1-.35,0" transform="translate(-192.84 -190.29)" style="fill:#020000"/><path d="M279.9,272.14c-14-1.37-24.69,7.25-35.41,14.22a45.25,45.25,0,0,1-7.83,3.72l-4.39-2.75c2.16-1.5,5.11-2.82,7.45-4.36,6.71-3.75,12.53-9.62,19.94-11.56A48.41,48.41,0,0,1,275.93,269c1.32,1,2.52,2.25,4,3.18" transform="translate(-192.84 -190.29)" style="fill:#fff"/><path d="M232.44,287.32l4.23,2.66a45.56,45.56,0,0,0,7.78-3.7c1.29-.84,2.61-1.72,3.89-2.58,8.67-5.8,17.63-11.8,28.61-11.8.86,0,1.74,0,2.61.11a22.55,22.55,0,0,1-2.05-1.65c-.54-.47-1.05-.92-1.6-1.32a48.42,48.42,0,0,0-16.21,2.44c-4.79,1.25-9,4.21-13.06,7.06a81.26,81.26,0,0,1-6.87,4.49c-1.11.74-2.39,1.43-3.62,2.11s-2.61,1.42-3.71,2.17m4.21,2.85,0,0-4.5-2.82.11-.08a43.71,43.71,0,0,1,3.84-2.26c1.23-.67,2.5-1.36,3.61-2.1a80.11,80.11,0,0,0,6.86-4.48c4.08-2.87,8.29-5.83,13.11-7.09a48.77,48.77,0,0,1,16.29-2.45h0l0,0c.56.41,1.1.88,1.63,1.34a19.79,19.79,0,0,0,2.33,1.83l-.06.16c-1-.1-2-.14-2.95-.14-10.93,0-19.86,6-28.51,11.76-1.28.86-2.6,1.74-3.9,2.59a45.47,45.47,0,0,1-7.85,3.73Z" transform="translate(-192.84 -190.29)" style="fill:#020000"/><path d="M289,278.34a36.64,36.64,0,0,1,3.13,2.78c-12.4.44-22.76,6.83-32.86,13-4.81,2.47-9.57,4.94-14.87,6.22l-1.79-3.66c9.79-2.78,17.59-10.63,26.81-14.74,5.74-3,12.61-4.85,19.58-3.61" transform="translate(-192.84 -190.29)" style="fill:#fff"/><path d="M242.75,296.74l1.72,3.5c5.18-1.26,10-3.72,14.57-6.09l.21-.11.22-.14c9.95-6.08,20.23-12.37,32.47-12.87a36.39,36.39,0,0,0-3-2.61,25.33,25.33,0,0,0-4.38-.38,33,33,0,0,0-15.12,4,79.68,79.68,0,0,0-11.19,6.55c-4.87,3.22-9.91,6.54-15.53,8.16m1.62,3.71,0-.07-1.84-3.76.1,0c5.63-1.6,10.69-4.94,15.58-8.17a80.06,80.06,0,0,1,11.21-6.56,33.23,33.23,0,0,1,15.2-4,25.39,25.39,0,0,1,4.44.38l0,0a36.78,36.78,0,0,1,3.14,2.79l.15.15h-.21c-12.28.44-22.61,6.75-32.59,12.85l-.23.14-.21.11c-4.65,2.39-9.45,4.86-14.68,6.12Z" transform="translate(-192.84 -190.29)" style="fill:#020000"/><path d="M296.91,286.11c1.15,1.37,2.48,2.64,3.76,4-12.31.22-21.75,7.72-31.41,14.43-7.32,4.41-15,8.63-23.95,8.63a49.28,49.28,0,0,0,.41-5.15c12.35-2.6,23.27-9.35,33.86-16.05,5.43-3,10.89-5.38,17.33-5.82" transform="translate(-192.84 -190.29)" style="fill:#fff"/><path d="M245.82,308a25.32,25.32,0,0,1-.24,3.4c-.06.52-.12,1.06-.17,1.59,8.82,0,16.29-4.09,23.8-8.62l2.68-1.87c8.59-6,17.47-12.29,28.57-12.56l-.91-.92c-.91-.92-1.85-1.87-2.69-2.86-6.65.47-12.21,3.06-17.24,5.8-9.39,5.95-21.07,13.35-33.81,16m-.5,5.16h-.1v-.1c0-.56.11-1.14.18-1.69a24.88,24.88,0,0,0,.23-3.45v-.07l.07,0c12.74-2.69,23.94-9.78,33.83-16,5.06-2.76,10.66-5.37,17.37-5.83h0l0,0c.83,1,1.78,2,2.7,2.88l1.05,1.07.14.15h-.2c-11.14.2-20.06,6.47-28.68,12.53l-2.68,1.88c-7.57,4.56-15.09,8.65-24,8.65" transform="translate(-192.84 -190.29)" style="fill:#020000"/><path d="M263.16,217.56a.71.71,0,1,1,.71.71.71.71,0,0,1-.71-.71" transform="translate(-192.84 -190.29)" style="fill:#020000"/><path d="M249.68,206.89a.71.71,0,1,1,.71.71.71.71,0,0,1-.71-.71" transform="translate(-192.84 -190.29)" style="fill:#deb13f"/><path d="M249.68,210.43a.71.71,0,1,1,.71.71.71.71,0,0,1-.71-.71" transform="translate(-192.84 -190.29)" style="fill:#deb13f"/><path d="M249.68,216.12a.71.71,0,1,1,.71.71.71.71,0,0,1-.71-.71" transform="translate(-192.84 -190.29)" style="fill:#020000"/><path d="M225.15,213.17a1.6,1.6,0,1,1,1.59,1.6,1.59,1.59,0,0,1-1.59-1.6" transform="translate(-192.84 -190.29)" style="fill:#deb13f"/><path d="M236.2,217.92a.71.71,0,1,1,.71.71.71.71,0,0,1-.71-.71" transform="translate(-192.84 -190.29)" style="fill:#020000"/><polygon points="43.45 39.27 39.89 38.97 38.72 41.77 41.37 42.17 43.45 39.27" style="fill:#006fba"/><polygon points="43.45 39.27 39.89 38.97 38.72 41.77 41.37 42.17 43.45 39.27" style="fill:#0055b8"/><polygon points="72.02 39.37 75.22 38.51 76.65 41.56 73.75 41.77 72.02 39.37" style="fill:#006fba"/><polygon points="72.02 39.37 75.22 38.51 76.65 41.56 73.75 41.77 72.02 39.37" style="fill:#0055b8"/><path d="M225.72,243.55a44.24,44.24,0,0,0-5.65,7.54C211.83,241,203.54,229.45,200.71,217Zm-6.23,39.25-7.58-1.59c-11.88-3.53-15.51-17.05-15.51-17.05.08-6.12,3.23-11.8,1.18-18.55-2.55-9.22-.49-20.84,1.65-29.81a16.08,16.08,0,0,0-1.69-.37,4.22,4.22,0,0,1-2.25-2.12c-.48-2.07,1.24-3.53,2.43-5.07,1.28-1.19,2.91-2.91,5-2.3a4,4,0,0,1,1.9,1.81,4.15,4.15,0,0,1-.84,4l26.46,28.59c-23.54,20.55-10.77,42.49-10.77,42.49" transform="translate(-192.84 -190.29)" style="fill:#020000"/><g style="clip-path:url(#b)"><path d="M202.78,209.11c.15,1.72-1.1,2.21-1.45,2.87l26.73,28.6-1.52,1.26s-23.19-24.94-26.41-28.47c0-.26-.38.55-1.23.52a2.12,2.12,0,0,1-1.59-1.33c-.26-1.41,3.09-4.5,4-4.63a1.71,1.71,0,0,1,1.45,1.19" transform="translate(-192.84 -190.29)" style="fill:#deb13f"/><path d="M200.51,213.16c3.23,3.54,23.5,25.35,26.07,28.1l.88-.73L200.82,212l.14-.26a3,3,0,0,1,.55-.66,2.23,2.23,0,0,0,.87-1.91,1.27,1.27,0,0,0-1.07-.88,9.52,9.52,0,0,0-3,2.73c-.62.87-.63,1.28-.6,1.42a1.66,1.66,0,0,0,1.25,1,1.06,1.06,0,0,0,.69-.35.62.62,0,0,1,.43-.22h.35Zm26,29.24-.26-.29c-.23-.25-22.3-24-26.19-28.24a1.7,1.7,0,0,1-1.1.42l-.16,0a2.52,2.52,0,0,1-1.86-1.59,2.84,2.84,0,0,1,.73-2.11c.92-1.28,2.77-2.94,3.62-3.07a2.08,2.08,0,0,1,1.89,1.44l0,.13a3,3,0,0,1-1.1,2.64l-.23.24,26.8,28.67Z" transform="translate(-192.84 -190.29)" style="fill:#deb13f"/><path d="M197.38,266.06c.07.05,0-3,0-3,.24-5.92,3.16-11.22,1.25-17.52-2.37-8.6-.79-18.11,1.2-26.46,4,12.4,11.19,22.76,19.62,33.18,0,0-8,14.84-.93,30.3-15.85-1.48-21.12-16.47-21.12-16.47" transform="translate(-192.84 -190.29)" style="fill:#0055b8"/><path d="M210.73,240.4c-1.32,4.54-.22,9.62.27,14.29.13,5.74-1.41,11.43-.13,17a32.18,32.18,0,0,0,3.76,10.18,26.39,26.39,0,0,1-5.22-2c-6.48-5.2-3.88-15.46-2.91-22.52.44-5.29.18-11.21-1.46-16.1a36.81,36.81,0,0,1,.13-9.84c1.85,3,3.62,6,5.56,8.91" transform="translate(-192.84 -190.29)" style="fill:#fff"/><path d="M209.45,279.87c.5.2,1,.42,1.49.65a16.15,16.15,0,0,0,3.49,1.27,31.75,31.75,0,0,1-3.66-10c-.8-3.52-.49-7.15-.19-10.65a59.08,59.08,0,0,0,.32-6.4c-.09-.9-.21-1.84-.33-2.75-.49-3.87-1-7.86.06-11.53-1.25-1.85-2.44-3.81-3.59-5.71-.59-1-1.2-2-1.81-3a36.34,36.34,0,0,0-.1,9.57,41.77,41.77,0,0,1,1.46,16.12c-.12.85-.26,1.74-.4,2.67-1.06,6.78-2.39,15.21,3.27,19.76M214.8,282l-.2,0a15.33,15.33,0,0,1-3.74-1.32c-.49-.22-1-.45-1.5-.65h0c-5.75-4.61-4.41-13.1-3.34-19.93.15-.94.29-1.82.4-2.66a41.66,41.66,0,0,0-1.45-16.06,36.64,36.64,0,0,1,.13-9.88l0-.24.13.21c.66,1,1.31,2.13,1.94,3.17,1.16,1.91,2.36,3.89,3.61,5.74l0,0v0c-1.06,3.65-.55,7.64-.06,11.5.12.91.24,1.85.33,2.76a59.91,59.91,0,0,1-.32,6.42c-.3,3.49-.61,7.1.18,10.59a31.1,31.1,0,0,0,3.75,10.15Z" transform="translate(-192.84 -190.29)" style="fill:#020000"/></g><path d="M233.82,308.53l-2.26-2.11-2.51-2.33.24-.06a29.37,29.37,0,0,0,4,2.94,4.17,4.17,0,0,0,2.22.75c1-.1.36-1.24-.65-2.27A8,8,0,0,0,233,304a15.3,15.3,0,0,0-1.94-.83l-1.41-.54c-.68-.27-1.3-.53-1.88-.81a15.87,15.87,0,0,1-1.62-.9,21.36,21.36,0,0,1-3.23-2.57,27,27,0,0,1-3.62-4.06c-1-1.42-1.5-2.7-1-3.36a1.81,1.81,0,0,1,1.39-.44c.55,0,1.05.06,1.09,0,.19-.22-.2-.74-.94-1.64l.26-.35,3.9,4.12,3.41,3.6-.3.19a34,34,0,0,0-4.75-3.62c-1.43-.86-2.49-1.21-2.86-.78s.59,2.21,2.15,3.72a11.86,11.86,0,0,0,2.3,1.85,25.52,25.52,0,0,0,3,1.23l1.83.65a9.57,9.57,0,0,1,2.25,1.06,17.69,17.69,0,0,1,3.93,3.2,9.36,9.36,0,0,1,2.15,3.2c.25.83,0,1.4-1,1.48a5,5,0,0,1-1.71-.3l-.29-.08a1.34,1.34,0,0,0-.34-.08c-.2,0,0,.23.32.62l-.26,0" transform="translate(-192.84 -190.29)" style="fill:#0055b8"/><path d="M226.54,288.22l.08-.08,2.35,2.23,2.48,2.35-.12.14a15.14,15.14,0,0,0-3.44-2.32c-.93-.42-1.63-.48-2-.15-.51.5.09,1.73,1.09,2.75a7,7,0,0,0,1,.83,5.88,5.88,0,0,0,1.38.66,12.63,12.63,0,0,0,2.09.42,14.59,14.59,0,0,1,2,.45,8.81,8.81,0,0,1,1.64.68,17.77,17.77,0,0,1,3.19,2.48,20.17,20.17,0,0,1,3.52,4.41c.84,1.49,1.23,2.83.9,3.66-.22.55-.57.8-1.6.77-.29.05-.44.12-.5.24s.14.91.92,2l-.1.26-3.8-4-3.53-3.67.13-.21a23.08,23.08,0,0,0,5.1,3.69c1.3.61,2.12.59,2.38,0,.38-.88-.76-2.8-2.18-4.2a7.7,7.7,0,0,0-2.64-1.76,8,8,0,0,0-1.9-.4,13.05,13.05,0,0,1-2.86-.67,10.39,10.39,0,0,1-2.22-1.18,17,17,0,0,1-2.19-1.91,13.21,13.21,0,0,1-2.6-3.69c-.46-1.06-.5-1.93,0-2.37a1,1,0,0,1,.65-.24c.43,0,1.44.2,1.57.07s.07-.31-.74-1.22" transform="translate(-192.84 -190.29)" style="fill:#0055b8"/><path d="M235,204.54a1.6,1.6,0,1,1,1.59,1.6,1.59,1.59,0,0,1-1.59-1.6" transform="translate(-192.84 -190.29)" style="fill:#deb13f"/><path d="M230.37,207.3A1.6,1.6,0,1,1,232,208.9a1.6,1.6,0,0,1-1.59-1.59" transform="translate(-192.84 -190.29)" style="fill:#deb13f"/><path d="M227,209.74a1.6,1.6,0,1,1,1.59,1.6,1.6,1.6,0,0,1-1.59-1.6" transform="translate(-192.84 -190.29)" style="fill:#deb13f"/><path d="M224.3,216.58a1.6,1.6,0,1,1,1.59,1.6,1.6,1.6,0,0,1-1.59-1.6" transform="translate(-192.84 -190.29)" style="fill:#deb13f"/><path d="M224,220.24a1.6,1.6,0,1,1,1.59,1.6,1.6,1.6,0,0,1-1.59-1.6" transform="translate(-192.84 -190.29)" style="fill:#deb13f"/><path d="M244,203.35a1.6,1.6,0,1,1,1.59,1.6,1.6,1.6,0,0,1-1.59-1.6" transform="translate(-192.84 -190.29)" style="fill:#deb13f"/><path d="M239.78,205.87a1.6,1.6,0,1,1,1.6,1.6,1.6,1.6,0,0,1-1.6-1.6" transform="translate(-192.84 -190.29)" style="fill:#deb13f"/><path d="M238.12,209.58a1.6,1.6,0,1,1,1.59,1.6,1.6,1.6,0,0,1-1.59-1.6" transform="translate(-192.84 -190.29)" style="fill:#deb13f"/><path d="M236.87,213.12a1.28,1.28,0,1,1,1.28,1.28,1.28,1.28,0,0,1-1.28-1.28" transform="translate(-192.84 -190.29)" style="fill:#deb13f"/><path d="M248.68,202.88a1.6,1.6,0,1,1,1.59,1.6,1.59,1.59,0,0,1-1.59-1.6" transform="translate(-192.84 -190.29)" style="fill:#deb13f"/><path d="M272.63,212.3a1.6,1.6,0,1,1,1.59,1.6,1.6,1.6,0,0,1-1.59-1.6" transform="translate(-192.84 -190.29)" style="fill:#deb13f"/><path d="M263,204.54a1.6,1.6,0,1,1,1.59,1.6,1.59,1.59,0,0,1-1.59-1.6" transform="translate(-192.84 -190.29)" style="fill:#deb13f"/><path d="M266.94,206.51a1.6,1.6,0,1,1,1.59,1.59,1.6,1.6,0,0,1-1.59-1.59" transform="translate(-192.84 -190.29)" style="fill:#deb13f"/><path d="M270.31,208.95a1.6,1.6,0,1,1,1.59,1.6,1.59,1.59,0,0,1-1.59-1.6" transform="translate(-192.84 -190.29)" style="fill:#deb13f"/><path d="M273.57,215.8a1.6,1.6,0,1,1,1.59,1.59,1.6,1.6,0,0,1-1.59-1.59" transform="translate(-192.84 -190.29)" style="fill:#deb13f"/><path d="M273.81,219.69a1.6,1.6,0,1,1,1.59,1.6,1.59,1.59,0,0,1-1.59-1.6" transform="translate(-192.84 -190.29)" style="fill:#deb13f"/><path d="M254.07,203.35a1.6,1.6,0,1,1,1.59,1.6,1.6,1.6,0,0,1-1.59-1.6" transform="translate(-192.84 -190.29)" style="fill:#deb13f"/><path d="M257.85,205.87a1.6,1.6,0,1,1,1.59,1.6,1.6,1.6,0,0,1-1.59-1.6" transform="translate(-192.84 -190.29)" style="fill:#deb13f"/><path d="M259.34,209.66a1.6,1.6,0,1,1,1.59,1.59,1.6,1.6,0,0,1-1.59-1.59" transform="translate(-192.84 -190.29)" style="fill:#deb13f"/><path d="M261.08,213.12a1.28,1.28,0,1,1,1.28,1.28,1.28,1.28,0,0,1-1.28-1.28" transform="translate(-192.84 -190.29)" style="fill:#deb13f"/><path d="M225.54,243.25a43,43,0,0,0-5.5,7.35c-8-9.8-16.11-21.09-18.86-33.2Z" transform="translate(-192.84 -190.29)" style="fill:#fff"/></svg>